<svg viewBox="0 0 16 17" width="16" height="17"><path d="m15.794 15.697l-3.735-3.874c1.203-1.303 1.87-3.012 1.868-4.785-0.04-3.915-3.15-7.06-6.957-7.038-3.813-0.03-6.93 3.118-6.97 7.038 0.04 3.92 3.157 7.068 6.97 7.038 1.409 1e-3 2.785-0.431 3.941-1.238l3.792 3.94c0.141 0.142 0.333 0.222 0.534 0.222 0.2 0 0.392-0.08 0.533-0.222 0.296-0.295 0.307-0.772 0.024-1.08zm-14.27-8.659c0.035-3.06 2.47-5.513 5.446-5.488 2.975-0.024 5.408 2.43 5.444 5.488-0.036 3.058-2.47 5.512-5.444 5.488-2.976 0.025-5.411-2.428-5.446-5.488z" fill="#f3f5fb"></path></svg>